<svg width="200" height="200" viewBox="0 0 200 200" fill="none" xmlns="http://www.w3.org/2000/svg">
<path d="M66.9746 16.7848C62.3746 16.7848 58.6413 20.5181 58.6413 25.1181C40.2163 25.1181 25.0496 40.0598 25.0496 58.4515V75.1181L25.3079 141.785C25.3079 160.168 40.2329 175.118 58.6413 175.118H141.975C160.383 175.118 175.308 160.193 175.308 141.785L175.05 75.1181V58.4515C175.05 40.0265 160.366 25.1181 141.975 25.1181C141.975 20.5181 138.25 16.7848 133.641 16.7848C129.041 16.7848 125.308 20.5181 125.308 25.1181H75.3079C75.3079 20.5181 71.5829 16.7848 66.9746 16.7848ZM58.6413 41.7848C58.6413 46.3848 62.3746 50.1181 66.9746 50.1181C71.5829 50.1181 75.3079 46.3848 75.3079 41.7848H125.308C125.308 46.3848 129.041 50.1181 133.641 50.1181C138.25 50.1181 141.975 46.3848 141.975 41.7848C151.116 41.7848 158.383 49.1848 158.383 58.4515V66.7848C142.35 66.7848 57.7496 66.7848 41.7162 66.7848V58.4515C41.7162 49.3098 49.3746 41.7848 58.6413 41.7848ZM41.7162 83.4515C57.7496 83.4515 142.35 83.4515 158.383 83.4515L158.641 141.785C158.641 150.96 151.183 158.451 141.975 158.451H58.6413C49.4413 158.451 41.9746 150.993 41.9746 141.785L41.7162 83.4515Z" fill="#2A343D"/>
</svg>
