<svg width="200" height="200" viewBox="0 0 200 200" fill="none" xmlns="http://www.w3.org/2000/svg">
<path d="M33.3197 24.923C28.7172 24.923 24.9863 28.6563 24.9863 33.2563V141.59C24.9863 159.998 39.9105 174.923 58.3197 174.923H166.653C171.253 174.923 174.986 171.19 174.986 166.59C174.986 161.99 171.253 158.256 166.653 158.256H58.3197C49.1147 158.256 41.653 150.798 41.653 141.59V33.2563C41.653 28.6563 37.9222 24.923 33.3197 24.923ZM116.653 41.5896V58.2563H146.336L123.161 81.4314C122.411 82.1897 120.07 83.2563 118.995 83.2563H105.978C100.486 83.2563 93.7113 85.8814 89.828 89.7647L60.663 118.931C57.4088 122.19 57.4088 127.656 60.663 130.915C62.2905 132.54 64.5205 133.256 66.653 133.256C68.7855 133.256 71.0155 132.54 72.643 130.915L101.811 101.748C102.561 100.99 104.903 99.923 105.978 99.923H118.995C124.486 99.923 131.261 97.2979 135.145 93.4146L158.32 70.2395V99.923H174.986V49.923C174.986 45.323 171.253 41.5896 166.653 41.5896H116.653Z" fill="#2A343D"/>
</svg>
