<svg width="200" height="200" viewBox="0 0 200 200" fill="none" xmlns="http://www.w3.org/2000/svg">
<path d="M33.3197 24.923C28.7172 24.923 24.9863 28.6563 24.9863 33.2563V141.59C24.9863 159.998 39.9105 174.923 58.3197 174.923H166.653C171.255 174.923 174.986 171.19 174.986 166.59C174.986 161.99 171.255 158.256 166.653 158.256H58.3197C49.1147 158.256 41.653 150.798 41.653 141.59V33.2563C41.653 28.6563 37.9222 24.923 33.3197 24.923ZM66.653 41.5896C64.5205 41.5896 62.2905 42.3064 60.663 43.9314C57.4088 47.1897 57.4088 52.6563 60.663 55.9146L89.8296 85.0813C93.7113 88.9646 100.486 91.5896 105.976 91.5896H118.996C120.065 91.5896 122.407 92.6563 123.163 93.4146L146.34 116.59H116.653V133.256H166.653C171.255 133.256 174.986 129.523 174.986 124.923V74.923H158.32V104.606L135.143 81.4314C131.261 77.548 124.486 74.923 118.996 74.923H105.976C104.907 74.923 102.565 73.8564 101.81 73.098L72.643 43.9314C71.0155 42.3064 68.7855 41.5896 66.653 41.5896Z" fill="#2A343D"/>
</svg>
