<svg width="151" height="160" viewBox="0 0 151 160" fill="none" xmlns="http://www.w3.org/2000/svg">
<path d="M41.9746 0.78479C37.3746 0.78479 33.6413 4.51812 33.6413 9.11812C15.2163 9.11812 0.0495605 24.0598 0.0495605 42.4515V59.1181L0.307943 125.785C0.307943 144.168 15.2329 159.118 33.6413 159.118H116.975C135.383 159.118 150.308 144.193 150.308 125.785L150.05 59.1181V42.4515C150.05 24.0265 135.366 9.11812 116.975 9.11812C116.975 4.51812 113.25 0.78479 108.641 0.78479C104.041 0.78479 100.308 4.51812 100.308 9.11812H50.3079C50.3079 4.51812 46.5829 0.78479 41.9746 0.78479ZM33.6413 25.7848C33.6413 30.3848 37.3746 34.1181 41.9746 34.1181C46.5829 34.1181 50.3079 30.3848 50.3079 25.7848H100.308C100.308 30.3848 104.041 34.1181 108.641 34.1181C113.25 34.1181 116.975 30.3848 116.975 25.7848C126.116 25.7848 133.383 33.1848 133.383 42.4515V50.7848C117.35 50.7848 32.7496 50.7848 16.7162 50.7848V42.4515C16.7162 33.3098 24.3746 25.7848 33.6413 25.7848ZM16.7162 67.4515C32.7496 67.4515 117.35 67.4515 133.383 67.4515L133.641 125.785C133.641 134.96 126.183 142.451 116.975 142.451H33.6413C24.4413 142.451 16.9746 134.993 16.9746 125.785L16.7162 67.4515Z" fill="#2A343D"/>
</svg>
