<svg width="151" height="151" viewBox="0 0 151 151" fill="none" xmlns="http://www.w3.org/2000/svg">
<path d="M9.31966 0.922974C4.71716 0.922974 0.986328 4.65631 0.986328 9.25631V117.59C0.986328 135.998 15.9105 150.923 34.3197 150.923H142.653C147.255 150.923 150.986 147.19 150.986 142.59C150.986 137.99 147.255 134.256 142.653 134.256H34.3197C25.1147 134.256 17.653 126.798 17.653 117.59V9.25631C17.653 4.65631 13.9222 0.922974 9.31966 0.922974ZM42.653 17.5896C40.5205 17.5896 38.2905 18.3064 36.663 19.9314C33.4088 23.1897 33.4088 28.6563 36.663 31.9146L65.8296 61.0813C69.7113 64.9646 76.4863 67.5896 81.9763 67.5896H94.9963C96.0654 67.5896 98.4071 68.6563 99.1629 69.4146L122.34 92.5896H92.653V109.256H142.653C147.255 109.256 150.986 105.523 150.986 100.923V50.923H134.32V80.6064L111.143 57.4314C107.261 53.548 100.486 50.923 94.9963 50.923H81.9763C80.9071 50.923 78.5655 49.8564 77.8096 49.098L48.643 19.9314C47.0155 18.3064 44.7855 17.5896 42.653 17.5896Z" fill="#2A343D"/>
</svg>
