<svg width="151" height="151" viewBox="0 0 151 151" fill="none" xmlns="http://www.w3.org/2000/svg">
<path d="M9.31966 0.922974C4.71716 0.922974 0.986328 4.65631 0.986328 9.25631V117.59C0.986328 135.998 15.9105 150.923 34.3197 150.923H142.653C147.253 150.923 150.986 147.19 150.986 142.59C150.986 137.99 147.253 134.256 142.653 134.256H34.3197C25.1147 134.256 17.653 126.798 17.653 117.59V9.25631C17.653 4.65631 13.9222 0.922974 9.31966 0.922974ZM92.653 17.5896V34.2563H122.336L99.1613 57.4314C98.4113 58.1897 96.0696 59.2563 94.9946 59.2563H81.978C76.4863 59.2563 69.7113 61.8814 65.828 65.7647L36.663 94.9314C33.4088 98.1897 33.4088 103.656 36.663 106.915C38.2905 108.54 40.5205 109.256 42.653 109.256C44.7855 109.256 47.0155 108.54 48.643 106.915L77.8113 77.7479C78.5613 76.9896 80.903 75.923 81.978 75.923H94.9946C100.486 75.923 107.261 73.2979 111.145 69.4146L134.32 46.2395V75.923H150.986V25.923C150.986 21.323 147.253 17.5896 142.653 17.5896H92.653Z" fill="#2A343D"/>
</svg>
